<?xml version="1.0" encoding="utf-8"?>
<!-- Generator: Adobe Illustrator 27.7.0, SVG Export Plug-In . SVG Version: 6.00 Build 0)  -->
<svg version="1.1" id="Layer_1" xmlns="http://www.w3.org/2000/svg" xmlns:xlink="http://www.w3.org/1999/xlink" x="0px" y="0px"
	 viewBox="0 0 53 53" style="enable-background:new 0 0 53 53;" xml:space="preserve">
<style type="text/css">
	.st0{fill:#F3CD4C;}
</style>
<g>
	<path class="st0" d="M18.9,21.3c-0.7,0.6-1.4,1-2,1.6c-0.7,0.7-0.8,1.6-0.6,2.6c0.2,1,0.7,1.8,1.3,2.6c1.1,1.6,2.4,3.1,3.7,4.5
		c0.7,0.8,0.6,1.3-0.4,1.6c-0.9,0.3-1.9,0.4-2.8,0.5c-0.4,0-0.5,0.1-0.4,0.5c0.2,2.8,0.4,5.6,0.6,8.3c0.1,1.6-1.1,3-2.7,3.1
		c-1.5,0.2-3-1-3.2-2.6c-0.2-1.6-0.3-3.3-0.4-4.9c-0.1-1.4-0.2-2.8-0.3-4.2c0-0.2-0.1-0.2-0.3-0.3c-0.4-0.1-0.6,0-0.8,0.5
		c-1.3,3.2-2.6,6.4-3.9,9.6c-0.7,1.7-2.3,2.4-3.9,1.8c-1.5-0.6-2.2-2.3-1.6-4c0.7-1.8,1.5-3.6,2.2-5.4c0.4-1,0.8-2,1.2-3
		c0.1-0.3,0.1-0.4-0.2-0.4c-0.7-0.2-1.5-0.4-2.2-0.7c-0.2-0.1-0.4-0.2-0.6-0.3c-0.7-0.4-0.7-0.8-0.2-1.4c1.2-1.3,1.7-2.9,2-4.5
		c0.3-1.2,0.5-2.5,0.9-3.7c0.7-2.1,2-3.8,3.7-5.1c2.3-1.9,4.7-3.6,7.3-5.2c0.8-0.5,1.6-0.9,2.5-1c1-0.2,2,0.1,2.7,0.8
		c2,2,3.2,4.4,3.3,7.2c0,1.1,0.1,2.3,0,3.4c0,0.3,0.1,0.5,0.3,0.6c1.1,0.8,2.2,1.6,3.3,2.4c0.9,0.6,1.3,1.5,1.1,2.6
		c-0.3,1.7-2.3,2.5-3.7,1.6c-1.7-1.2-3.4-2.4-5.1-3.6c-0.6-0.5-0.9-1.2-0.9-2C18.9,23.6,18.9,22.5,18.9,21.3z"/>
	<path class="st0" d="M37.9,38.3c0-2.2,0-4.4,0-6.6c0-0.3-0.1-0.5-0.3-0.7c-1.7-1.9-3.3-3.9-5-5.8c-0.4-0.4-0.6-0.9-0.4-1.5
		c0.1-0.6,0.6-1.1,1.2-1.2c0.7-0.2,1.2,0,1.7,0.5c1.3,1.5,2.5,2.9,3.8,4.4c0.6,0.7,1.3,1,2.1,1c1,0,2,0,3,0c0.8,0,1.4-0.3,1.9-0.9
		c1.3-1.5,2.5-3,3.8-4.5c0.8-1,2.3-0.8,2.8,0.4c0.3,0.7,0.2,1.3-0.3,1.8c-1.7,1.9-3.3,3.9-5,5.8c-0.2,0.2-0.3,0.5-0.3,0.8
		c0,4.4,0,8.8,0,13.1c0,0.9-0.4,1.5-1.2,1.7c-1.1,0.3-2.1-0.5-2.1-1.7c0-2.1,0-4.2,0-6.3c0-0.6-0.1-0.7-0.7-0.7c-0.4,0-0.7,0-1.1,0
		c-0.5,0-0.6,0.1-0.6,0.6c0,2.1,0,4.3,0,6.4c0,1.2-1,2-2.1,1.7c-0.7-0.2-1.2-0.8-1.2-1.7C37.9,42.7,37.9,40.5,37.9,38.3z"/>
	<path class="st0" d="M21.8,9.7c0-2.9,2.4-5.3,5.3-5.3c3,0,5.4,2.4,5.4,5.3c0,2.9-2.4,5.3-5.3,5.4C24.1,15.1,21.8,12.7,21.8,9.7z"/>
	<path class="st0" d="M46.5,22.7c0,2.3-1.8,4-4.1,4c-2.2,0-4-1.8-4-4.1c0-2.2,1.8-4,4.1-4C44.7,18.7,46.5,20.5,46.5,22.7z"/>
	<path class="st0" d="M24.7,46.7c-0.6,0-1.2,0-1.9,0c-0.7,0-1.1-0.4-1.1-1.1c0-1.2,0-2.5,0-3.7c0-0.7,0.4-1.1,1.1-1.1
		c1.2,0,2.5,0,3.7,0c0.7,0,1.1,0.4,1.1,1.1c0,1.2,0,2.4,0,3.7c0,0.7-0.4,1.1-1.1,1.1C25.9,46.7,25.3,46.7,24.7,46.7
		C24.7,46.7,24.7,46.7,24.7,46.7z"/>
	<path class="st0" d="M31.8,46.7c-0.6,0-1.2,0-1.9,0c-0.7,0-1.1-0.4-1.1-1.1c0-1.2,0-2.5,0-3.7c0-0.7,0.4-1.1,1.1-1.1
		c1.2,0,2.5,0,3.7,0c0.7,0,1.1,0.4,1.1,1.1c0,1.2,0,2.5,0,3.7c0,0.7-0.4,1.1-1.1,1.1C33,46.7,32.4,46.7,31.8,46.7z"/>
	<path class="st0" d="M31.2,36.6c0,0.6,0,1.2,0,1.9c0,0.7-0.4,1.1-1.1,1.1c-1.2,0-2.5,0-3.7,0c-0.7,0-1.1-0.4-1.1-1.1
		c0-1.2,0-2.5,0-3.7c0-0.7,0.4-1.1,1.1-1.1c1.2,0,2.5,0,3.7,0c0.7,0,1.1,0.4,1.1,1.1C31.2,35.4,31.2,36,31.2,36.6z"/>
</g>
</svg>
